<svg height='100px' width='100px'  fill="#000000" xmlns="http://www.w3.org/2000/svg" data-name="Layer 1" viewBox="0 0 64 64" x="0px" y="0px"><rect x="12" y="34" width="2" height="2"></rect><path d="M33,14V6.81573a3.00011,3.00011,0,1,0-2-.00006V14Z"></path><path d="M42,14v7h2V14.41406l1.71466-1.71466A2.96548,2.96548,0,0,0,47,13a3,3,0,1,0-3-3,2.96548,2.96548,0,0,0,.3006,1.28534L42.293,13.293A1.00012,1.00012,0,0,0,42,14Z"></path><path d="M17,7a3,3,0,0,0,0,6,2.96548,2.96548,0,0,0,1.28534-.3006L20,14.41406V21h2V14a1.00012,1.00012,0,0,0-.293-.707L19.6994,11.28534A2.96548,2.96548,0,0,0,20,10,3.00328,3.00328,0,0,0,17,7Z"></path><path d="M7,18a3,3,0,1,0,2.07971,5.15393L12,24.61719V32h2V24a1.00054,1.00054,0,0,0-.55176-.894L9.96362,21.35962A2.94724,2.94724,0,0,0,10,21,3.00328,3.00328,0,0,0,7,18Z"></path><path d="M50,24v8h2V24.61719l2.92029-1.46326A2.99425,2.99425,0,1,0,54,21a2.94724,2.94724,0,0,0,.03638.35962L50.55176,23.106A1.00054,1.00054,0,0,0,50,24Z"></path><rect x="50" y="34" width="2" height="2"></rect><path d="M8,39h.024A24.15153,24.15153,0,0,0,8.321,41.87781a.89741.89741,0,0,0,.88874.74243h.14929A3.21077,3.21077,0,0,1,12.373,44.822a20.61273,20.61273,0,0,0,.92132,2.21893,3.21779,3.21779,0,0,1-.57092,3.70142l-.10931.10931a.899.899,0,0,0-.10242,1.15571,24.13377,24.13377,0,0,0,5.48083,5.48089.89907.89907,0,0,0,1.1557-.10242l.10932-.10937a3.218,3.218,0,0,1,3.70166-.57086,20.5952,20.5952,0,0,0,2.21832.92108A3.21474,3.21474,0,0,1,27.3797,60.644v.11756a.90545.90545,0,0,0,.74243.91742,23.58108,23.58108,0,0,0,7.75574,0,.89741.89741,0,0,0,.74243-.88874v-.14929a3.211,3.211,0,0,1,2.20215-3.01422,20.5952,20.5952,0,0,0,2.21832-.92108,3.218,3.218,0,0,1,3.70166.57086l.10932.10937a.89907.89907,0,0,0,1.1557.10242,24.13377,24.13377,0,0,0,5.48083-5.48089.899.899,0,0,0-.10242-1.15571l-.10931-.10931a3.21779,3.21779,0,0,1-.57092-3.70142A20.61273,20.61273,0,0,0,51.627,44.822a3.21077,3.21077,0,0,1,3.014-2.20178h.14929a.89741.89741,0,0,0,.88874-.74243A24.15153,24.15153,0,0,0,55.976,39H56V37H46V24l-8-1.77777V16H26v6.22223L18,24V37H8ZM40,26.25h3v1.5H40Zm0,4h3v1.5H40Zm-11-10h6v1.5H29Zm0,4h6v1.5H29Zm0,4h6v1.5H29ZM34,33v4H30V33ZM21,26.25h3v1.5H21Zm0,4h3v1.5H21ZM46.78448,39a14.81788,14.81788,0,0,1-29.569,0Z"></path></svg>