<svg height='100px' width='100px'  fill="#000000" xmlns="http://www.w3.org/2000/svg" data-name="Layer 2" viewBox="0 0 100 100" x="0px" y="0px"><path d="M93.85,55.65a3,3,0,0,0-4.21,0l-5.26,5.26-5.26-5.26a3,3,0,1,0-4.21,4.21l5.26,5.26-5.26,5.26a3,3,0,1,0,4.21,4.21l5.26-5.26,5.26,5.26a3,3,0,1,0,4.21-4.21l-5.26-5.26,5.26-5.26A3,3,0,0,0,93.85,55.65Z"></path><rect x="5" y="28.26" width="65.73" height="16.15" rx="8.08"></rect><path d="M62.65,57H13.08a8.08,8.08,0,0,0,0,16.16H62.65a8.08,8.08,0,0,0,0-16.16Z"></path><path d="M78.75,46.7a3,3,0,0,0,5.09,0L94.57,29.06A3,3,0,1,0,89.48,26L81.29,39.42l-1.73-2.86a3,3,0,0,0-5.09,3.1Z"></path></svg>
