<svg height='100px' width='100px'  fill="#000000" xmlns="http://www.w3.org/2000/svg" xmlns:xlink="http://www.w3.org/1999/xlink" version="1.1" x="0px" y="0px" viewBox="0 0 32 32" style="enable-background:new 0 0 32 32;" xml:space="preserve"><title>login</title><path d="M30,7.3v17.5c0,1.4-0.9,2.7-2.3,3l0,0l-9,2.2c-0.9,0.2-1.8,0-2.5-0.6C15.4,28.8,15,27.9,15,27H7  c-1.7,0-3-1.3-3-3v-0.1V23c0-0.6,0.4-1,1-1s1,0.4,1,1v0.9c0,0.6,0.4,1,0.9,1.1H7h8V7H7C6.4,7,6,7.4,6,8v0.1V9c0,0.6-0.4,1-1,1  S4,9.6,4,9V8.1C4,6.4,5.3,5,6.9,5H7h8c0-0.9,0.4-1.8,1.2-2.4C16.9,2,17.8,1.8,18.7,2l9,2.2C29.1,4.6,30,5.8,30,7.3z M6,19v1  c0,0.6,0.5,1,1,1c0.2,0,0.4-0.1,0.5-0.2l6-4c0.5-0.3,0.5-1.4,0-1.7l-6-4c-0.5-0.3-1.1-0.2-1.4,0.3C6.1,11.6,6,11.8,6,12v1H4  c-1.1,0-2,0.9-2,2v2c0,1.1,0.9,2,2,2H6z"></path></svg>