<svg height='100px' width='100px'  fill="#000000" xmlns="http://www.w3.org/2000/svg" xmlns:xlink="http://www.w3.org/1999/xlink" version="1.1" x="0px" y="0px" viewBox="0 0 66 66" enable-background="new 0 0 66 66" xml:space="preserve"><g><g><g><path d="M13.1950121,1.3450012l-6.460022,15.6000366l36.460022,15.0999756l0.8699951-2.4575043     C45.3850136,26.4075165,48.4650307,24,51.9150429,24h0.2099609c1.0499878,0,2.0800171,0.5875092,3.0499878,0.9875336     l5.3200073,2.3837509l2.3300171-5.5581245L13.1950121,1.3450012z M13.2650194,14.0950012l2.5300293-6.1099854l1.3099985-0.539978     c0.9199829,0.3800049,0.6499634,1.0499878,0.1499634,2.2600098L15.114995,14.855011L13.2650194,14.0950012z      M17.0450497,15.6549988l2.1399536-5.1499634c0.1500244-0.3699951,0.2800293-0.6900024,0.4100342-0.9400024     c1.0709152-2.0037255,1.7299023,0.6624498,1.8299561,0.75l-0.7399902-0.3099976l0.7399902,0.3200073     c-0.0599976,0.1199951-2.5299683,6.0999756-2.5299683,6.0999756L17.0450497,15.6549988z M20.8250179,17.2250061     l2.5300293-6.1099854l1.2999878-0.539978c0.9299927,0.3800049,0.6499634,1.0499878,0.1499634,2.2600098l-2.1300049,5.1499634     L20.8250179,17.2250061z M28.5850277,14.39505l-2.1400146,5.1599731l-1.8499756-0.7700195l2.5299683-6.1099854     l1.3099976-0.539978C29.3550472,12.5250549,29.0850277,13.1850281,28.5850277,14.39505z"></path></g></g><g><g><path d="M51.9949989,26.6950378l-4.1499634,10.0100098L44.0650063,35.14505     c1.1799927-2.8200073,1.6300049-3.9000244,1.7800293-4.2700195c0,0,0-0.0100098,0.0100098-0.0100098     c0,0,0-0.0100098,0.0099487-0.0299683v-0.0100098c0.0100098-0.0100098,0.0100098-0.0200195,0.0200195-0.0400391     c0,0,0,0,0-0.0099487c0.0100098-0.0200195,0.0200195-0.0400391,0.0300293-0.0700073     C46.9849892,28.105011,49.4750404,26.6650085,51.9949989,26.6950378z"></path></g></g><g><g><path d="M56.0450478,27.8650208L51.7150307,38.315033l-2.0300293-0.8400269l4.3300171-10.4400024     c0.1300049,0.0500488,0.2600098,0.1000366,0.3900146,0.1500244L56.0450478,27.8650208z"></path></g></g><g><g><polygon points="59.6712456,31.5657978 57.2950478,37.4150085 54.6950111,36.3350525 57.07127,30.475771    "></polygon></g></g><g><g><path d="M5.1749926,56.0150452v2.4099731h0.2800293c0.5599976,0,1,0.4500122,1,1s-0.4400024,1-1,1H5.1749926v4.2299805H3.1749928     V40.9850159h1.9999998v4.2300415h0.2800293c0.5599976,0,1,0.4499512,1,1c0,0.5499878-0.4400024,1-1,1H5.1749926v2.4199829     h8.7200317l4.080018-9.8500366l5.9599609,2.4700317l-5.539978,13.7600098H5.1749926z"></path></g></g><g><g><polygon points="27.3049984,38.1150208 26.1050472,40.9950256 17.4750423,37.4150085 18.6650448,34.5450134    "></polygon></g></g><g><polygon points="42.4150429,33.8850403 40.3950233,38.7650452 29.9150448,34.4250183 28.9650326,36.64505 18.4150448,32.2750549     19.3750057,30.0550232 9.3049974,25.8850403 11.325017,21.0050354   "></polygon></g></g></svg>