<svg height='100px' width='100px'  fill="#000000" xmlns="http://www.w3.org/2000/svg" xmlns:xlink="http://www.w3.org/1999/xlink" xml:space="preserve" version="1.1" style="shape-rendering:geometricPrecision;text-rendering:geometricPrecision;image-rendering:optimizeQuality;" viewBox="0 0 377 358" x="0px" y="0px" fill-rule="evenodd"><defs><style type="text/css">

    .fil0 {fill:#000000}

  </style></defs><g><path class="fil0" d="M189 0l178 67c14,5 14,24 0,29l-178 68 -179 -68c-13,-5 -13,-24 0,-29l179 -67z"></path><path class="fil0" d="M299 139l68 25c14,5 14,24 0,29l-178 68 -179 -68c-13,-5 -13,-24 0,-29l68 -25 105 39c4,2 7,2 11,0l105 -39z"></path><path class="fil0" d="M299 236l68 25c14,5 14,25 0,30l-178 67 -179 -67c-13,-5 -13,-25 0,-30l68 -25 105 39c4,2 7,2 11,0l105 -39z"></path></g></svg>
