<svg height='100px' width='100px'  fill="#000000" xmlns:x="http://ns.adobe.com/Extensibility/1.0/" xmlns:i="http://ns.adobe.com/AdobeIllustrator/10.0/" xmlns:graph="http://ns.adobe.com/Graphs/1.0/" xmlns="http://www.w3.org/2000/svg" xmlns:xlink="http://www.w3.org/1999/xlink" version="1.1" x="0px" y="0px" viewBox="0 0 100 100" enable-background="new 0 0 100 100" xml:space="preserve"><metadata><sfw xmlns="http://ns.adobe.com/SaveForWeb/1.0/"><slices></slices><sliceSourceBounds width="1448.1" height="1444.6" x="0.8" y="-1448.4" bottomLeftOrigin="true"></sliceSourceBounds></sfw></metadata><path d="M90,4.2H64.3c-4.9,0-8.8,4-8.8,8.8v25.7c0,4.9,4,8.8,8.8,8.8H90c4.9,0,8.8-4,8.8-8.8V13C98.8,8.2,94.9,4.2,90,4.2z   M89.8,38.6H64.5V13.2h25.4V38.6z M2.1,28.2c-1.3-1.3-1.3-3.4,0-4.6L13.7,12c1.7-1.7,4.6-1.5,6,0.6c1,1.6,0.7,3.7-0.6,5L14.8,22  h28.1c2.2,0,3.9,1.8,3.9,3.9c0,2.2-1.8,3.9-3.9,3.9H14.8l4.3,4.3c1.3,1.3,1.7,3.4,0.6,5c-1.4,2.1-4.3,2.3-6,0.6L2.1,28.2z M10,95.8  h25.7c4.9,0,8.8-4,8.8-8.8V61.3c0-4.9-4-8.8-8.8-8.8H10c-4.9,0-8.8,4-8.8,8.8V87C1.2,91.8,5.1,95.8,10,95.8z M10.2,61.4h25.4v25.4  H10.2V61.4z M97.9,71.8c1.3,1.3,1.3,3.4,0,4.6L86.3,88c-1.7,1.7-4.6,1.5-6-0.6c-1-1.6-0.7-3.7,0.6-5l4.3-4.3H57.1  c-2.2,0-3.9-1.8-3.9-3.9c0-2.2,1.8-3.9,3.9-3.9h28.1l-4.3-4.3c-1.3-1.3-1.7-3.4-0.6-5c1.4-2.1,4.3-2.3,6-0.6L97.9,71.8z"></path></svg>