<svg height='100px' width='100px'  fill="#000000" xmlns:dc="http://purl.org/dc/elements/1.1/" xmlns:cc="http://creativecommons.org/ns#" xmlns:rdf="http://www.w3.org/1999/02/22-rdf-syntax-ns#" xmlns:svg="http://www.w3.org/2000/svg" xmlns="http://www.w3.org/2000/svg" xmlns:sodipodi="http://sodipodi.sourceforge.net/DTD/sodipodi-0.dtd" xmlns:inkscape="http://www.inkscape.org/namespaces/inkscape" viewBox="0 0 25.399999 25.400001" version="1.1" x="0px" y="0px"><g transform="translate(0,-271.59998)"><path style="color:#000000;font-style:normal;font-variant:normal;font-weight:normal;font-stretch:normal;font-size:medium;line-height:normal;font-family:sans-serif;font-variant-ligatures:normal;font-variant-position:normal;font-variant-caps:normal;font-variant-numeric:normal;font-variant-alternates:normal;font-feature-settings:normal;text-indent:0;text-align:start;text-decoration:none;text-decoration-line:none;text-decoration-style:solid;text-decoration-color:#000000;letter-spacing:normal;word-spacing:normal;text-transform:none;writing-mode:lr-tb;direction:ltr;text-orientation:mixed;baseline-shift:baseline;text-anchor:start;white-space:normal;shape-padding:0;clip-rule:nonzero;display:inline;overflow:visible;visibility:visible;opacity:1;isolation:auto;mix-blend-mode:normal;color-interpolation:sRGB;color-interpolation-filters:linearRGB;solid-color:#000000;solid-opacity:1;vector-effect:none;fill:#000000;fill-opacity:1;fill-rule:nonzero;stroke:none;stroke-width:3.99999976;stroke-linecap:round;stroke-linejoin:round;stroke-miterlimit:4;stroke-dasharray:none;stroke-dashoffset:0;stroke-opacity:1;paint-order:stroke fill markers;color-rendering:auto;image-rendering:auto;shape-rendering:auto;text-rendering:auto;enable-background:accumulate" d="M 6.0019531 16.001953 A 2.0001999 2.0001999 0 0 0 4.0019531 18.003906 L 4.0019531 78.003906 A 2.0001999 2.0001999 0 0 0 6.0019531 80.003906 L 90 80.003906 A 2.0001999 2.0001999 0 0 0 92 78.003906 L 92 18.003906 A 2.0001999 2.0001999 0 0 0 90 16.001953 L 6.0019531 16.001953 z M 36.001953 27.998047 C 42.053398 27.998047 47 32.946608 47 38.998047 C 47 42.328828 45.495237 45.320875 43.138672 47.34375 C 50.644305 50.227788 55.998047 57.494502 55.998047 66 A 2.0001999 2.0001999 0 0 1 53.998047 68 L 17.996094 68 A 2.0001999 2.0001999 0 0 1 15.996094 66 C 15.996093 57.494502 21.355641 50.227788 28.863281 47.34375 C 26.506692 45.320884 25.001953 42.328412 25.001953 38.998047 C 25.001953 32.946608 29.95051 27.998047 36.001953 27.998047 z M 36.001953 32 C 32.112271 32 29.003906 35.108346 29.003906 38.998047 C 29.003906 42.88771 32.112271 46.001953 36.001953 46.001953 C 39.891637 46.001953 43 42.88771 43 38.998047 C 43 35.108346 39.891637 32 36.001953 32 z M 66.001953 34 L 77.996094 34 A 2.0005039 2.0005039 0 1 1 77.996094 38 L 66.001953 38 A 2.0005039 2.0005039 0 1 1 66.001953 34 z M 66.001953 46.001953 L 77.996094 46.001953 A 2.0009765 2.0009765 0 0 1 77.996094 50.003906 L 66.001953 50.003906 A 2.0009765 2.0009765 0 1 1 66.001953 46.001953 z M 36.001953 50.003906 C 27.852343 50.003906 21.425661 56.136315 20.404297 64 L 51.591797 64 C 50.570432 56.136315 44.151565 50.003906 36.001953 50.003906 z M 66.001953 57.998047 L 77.996094 57.998047 A 2.0005039 2.0005039 0 1 1 77.996094 62 L 66.001953 62 A 2.0005039 2.0005039 0 1 1 66.001953 57.998047 z " transform="matrix(0.26458333,0,0,0.26458333,0,271.59998)"></path></g></svg>
