<svg height='100px' width='100px'  fill="#000000" xmlns="http://www.w3.org/2000/svg" xmlns:xlink="http://www.w3.org/1999/xlink" viewBox="0 0 100 100" version="1.1" x="0px" y="0px"><title>i16</title><desc>Created with Sketch.</desc><g stroke="none" stroke-width="1" fill="none" fill-rule="evenodd"><path d="M79.114,53.239 L70.559,61.976 L79.114,70.714 L74.242,75.484 L65.787,66.849 L57.332,75.484 L52.461,70.714 L61.016,61.976 L52.461,53.239 L57.332,48.468 L65.787,57.103 L74.242,48.468 L79.114,53.239 Z M65.992,85.052 C53.38,85.052 43.121,74.792 43.121,62.181 C43.121,49.57 53.38,39.31 65.992,39.31 C78.603,39.31 88.863,49.57 88.863,62.181 C88.863,74.792 78.603,85.052 65.992,85.052 L65.992,85.052 Z M29.034,52.67 L15.58,41.752 L19.877,36.457 L28.132,43.157 L46.035,21.906 L51.25,26.3 L29.034,52.67 Z M65.992,33.173 C64.905,33.173 63.834,33.238 62.779,33.354 C60.981,19.06 48.79,8 34.008,8 C17.987,8 5,20.988 5,37.008 C5,53.029 17.987,66.016 34.008,66.016 C35.094,66.016 36.165,65.952 37.221,65.835 C39.019,80.129 51.21,91.189 65.992,91.189 C82.012,91.189 95,78.202 95,62.181 C95,46.16 82.012,33.173 65.992,33.173 L65.992,33.173 Z" fill="#000000"></path></g></svg>