<svg height='100px' width='100px'  fill="#000000" xmlns:x="http://ns.adobe.com/Extensibility/1.0/" xmlns:i="http://ns.adobe.com/AdobeIllustrator/10.0/" xmlns:graph="http://ns.adobe.com/Graphs/1.0/" xmlns="http://www.w3.org/2000/svg" xmlns:xlink="http://www.w3.org/1999/xlink" version="1.1" x="0px" y="0px" viewBox="0 0 100 100" style="enable-background:new 0 0 100 100;" xml:space="preserve"><g><g i:extraneous="self"><g><path d="M5273.1,2400.1v-2c0-2.8-5-4-9.7-4s-9.7,1.3-9.7,4v2c0,1.8,0.7,3.6,2,4.9l5,4.9c0.3,0.3,0.4,0.6,0.4,1v6.4     c0,0.4,0.2,0.7,0.6,0.8l2.9,0.9c0.5,0.1,1-0.2,1-0.8v-7.2c0-0.4,0.2-0.7,0.4-1l5.1-5C5272.4,2403.7,5273.1,2401.9,5273.1,2400.1z      M5263.4,2400c-4.8,0-7.4-1.3-7.5-1.8v0c0.1-0.5,2.7-1.8,7.5-1.8c4.8,0,7.3,1.3,7.5,1.8C5270.7,2398.7,5268.2,2400,5263.4,2400z"></path><path d="M5268.4,2410.3c-0.6,0-1,0.4-1,1c0,0.6,0.4,1,1,1h4.3c0.6,0,1-0.4,1-1c0-0.6-0.4-1-1-1H5268.4z"></path><path d="M5272.7,2413.7h-4.3c-0.6,0-1,0.4-1,1c0,0.6,0.4,1,1,1h4.3c0.6,0,1-0.4,1-1C5273.7,2414.1,5273.3,2413.7,5272.7,2413.7z"></path><path d="M5272.7,2417h-4.3c-0.6,0-1,0.4-1,1c0,0.6,0.4,1,1,1h4.3c0.6,0,1-0.4,1-1C5273.7,2417.5,5273.3,2417,5272.7,2417z"></path></g><g><path d="M89.1,2.5H10.9C8.2,2.5,6,4.7,6,7.4v65c0,2.7,2.2,4.9,4.9,4.9h26.5v0.5c0,2.6-2.1,4.7-4.7,4.7c-4,0-7.2,3.2-7.2,7.2v4.9     c0,1.6,1.3,2.9,2.9,2.9h43.3c1.6,0,2.9-1.3,2.9-2.9v-4.9c0-4-3.2-7.2-7.3-7.2c-2.6,0-4.7-2.1-4.7-4.7v-0.5h26.5     c2.7,0,4.9-2.2,4.9-4.9v-65C94,4.7,91.8,2.5,89.1,2.5z M88.2,8.3v43.1H11.8V8.3H88.2z M67.4,88.3c0.8,0,1.4,0.6,1.4,1.4v2H31.3     v-2c0-0.8,0.6-1.4,1.4-1.4c5.8,0,10.5-4.7,10.5-10.5v-0.5h13.7v0.5C56.8,83.6,61.5,88.3,67.4,88.3z M11.8,71.5V57.2h76.5v14.3     H11.8z"></path><circle cx="50" cy="64.4" r="3.6"></circle><path d="M30.9,32.4h1.7c0.6,0,1.2,0.3,1.6,0.7c0.4,0.5,0.6,1.1,0.6,1.7c-0.1,1.1-1.1,2-2.4,2h-2.3c-0.7,0-1.2-0.5-1.4-1.1     c-0.1-0.4-0.5-0.7-0.9-0.7h-2.7c-0.3,0-0.5,0.1-0.7,0.3c-0.2,0.2-0.3,0.5-0.2,0.7c0.3,2.8,2.4,4.9,5.1,5.3v2.3c0,0.5,0.4,1,1,1     h2.6c0.5,0,0.9-0.4,0.9-1v-2.4c3-0.6,5.2-3,5.5-5.9c0.2-1.9-0.4-3.8-1.7-5.2c-1.3-1.4-3.1-2.2-5-2.2h-2c-0.6,0-1.2-0.3-1.6-0.7     c-0.4-0.5-0.6-1.1-0.6-1.7c0.1-1.1,1.1-2,2.4-2h2.3c0.7,0,1.2,0.5,1.4,1.1c0.1,0.4,0.5,0.7,0.9,0.7h2.7c0.3,0,0.5-0.1,0.7-0.3     c0.2-0.2,0.3-0.5,0.2-0.7c-0.3-2.8-2.4-4.9-5.1-5.3v-2.3c0-0.5-0.4-1-0.9-1h-2.6c-0.5,0-1,0.4-1,1V19c-3.4,0.6-5.8,3.8-5.5,7.3     C24.2,29.7,27.3,32.4,30.9,32.4z"></path><path d="M45.1,44.5c0.1,0,0.3,0,0.4,0c0.6-0.1,1.2-0.4,1.6-1L55,32.6l5.3,3.9c1.1,0.8,2.6,0.6,3.4-0.5l8.4-11.5l1.7,1.2     c0.5,0.3,1.1,0.4,1.6,0.1c0.5-0.3,0.8-0.8,0.8-1.4L76,17c0-0.5-0.2-0.9-0.6-1.2c-0.4-0.3-0.9-0.4-1.3-0.2l-7.2,2.1     c-0.6,0.2-1,0.6-1.1,1.2c-0.1,0.6,0.1,1.1,0.6,1.5l1.7,1.2l-7,9.5l-5.3-3.9c-1.1-0.8-2.6-0.6-3.4,0.5l-9.4,12.8     c-0.8,1.1-0.6,2.6,0.5,3.4C44.1,44.3,44.6,44.5,45.1,44.5z"></path></g></g></g></svg>