<svg height='100px' width='100px'  fill="#000000" xmlns="http://www.w3.org/2000/svg" xmlns:xlink="http://www.w3.org/1999/xlink" version="1.1" x="0px" y="0px" viewBox="0 0 64 64" style="enable-background:new 0 0 64 64;" xml:space="preserve"><g><path d="M7,26.65V21h14v6h32c4.411,0,8-3.589,8-8s-3.589-8-8-8c-1.371,0-2.728,0.358-3.926,1.035L48.25,12.5l-0.51-0.798   C46.257,9.384,43.738,8,41,8c-2.069,0-4.035,0.793-5.535,2.233l-1.007,0.967l-0.591-1.265C31.898,5.722,27.633,3,23,3   c-6.269,0-11.521,4.9-11.957,11.156l-0.075,1.08l-1.071-0.161C9.555,15.024,9.27,15,9,15c-3.309,0-6,2.691-6,6   C3,23.566,4.657,25.816,7,26.65z M53,23c2.206,0,4-1.794,4-4h2c0,3.309-2.691,6-6,6V23z M42,20.277V13h2v7.277   c0.595,0.346,1,0.984,1,1.723c0,1.105-0.895,2-2,2s-2-0.895-2-2C41,21.262,41.405,20.624,42,20.277z M35,14c1.105,0,2,0.895,2,2   c0,0.738-0.405,1.376-1,1.723V25h-2v-7.277c-0.595-0.346-1-0.984-1-1.723C33,14.895,33.895,14,35,14z M26,18.277V13h2v5.277   c0.595,0.346,1,0.984,1,1.723c0,0.738-0.405,1.376-1,1.723V25h-2v-3.277c-0.595-0.346-1-0.984-1-1.723   C25,19.262,25.405,18.624,26,18.277z M23,5v2c-4.411,0-8,3.589-8,8h-2C13,9.486,17.486,5,23,5z"></path><circle cx="14" cy="50" r="3"></circle><rect x="43" y="45" width="2" height="4"></rect><rect x="39" y="45" width="2" height="4"></rect><polygon points="37,49 37,47.303 35.868,49  "></polygon><path d="M31,49h-6v-1.292l-1.392-0.491l-0.157-0.458c-0.131-0.383-0.292-0.769-0.478-1.147l-0.213-0.435l0.638-1.334l-3.242-3.242   l-1.334,0.638l-0.435-0.213c-0.378-0.186-0.764-0.346-1.147-0.478l-0.458-0.157L16.292,39H15v-6h4V23H9v10h4v6h-1.292l-0.491,1.392   l-0.458,0.157c-0.383,0.131-0.769,0.292-1.147,0.478l-0.435,0.213l-1.334-0.638l-3.242,3.242l0.638,1.334l-0.213,0.435   C4.84,45.99,4.68,46.375,4.548,46.759l-0.157,0.458L3,47.708v4.585l1.392,0.491l0.157,0.458c0.131,0.383,0.292,0.769,0.478,1.147   l0.213,0.435l-0.638,1.334l3.242,3.242l1.334-0.638l0.435,0.213c0.378,0.186,0.764,0.346,1.147,0.478l0.458,0.157L11.708,61h4.585   l0.491-1.392l0.458-0.157c0.383-0.131,0.769-0.292,1.147-0.478l0.435-0.213l1.334,0.638l3.242-3.242l-0.638-1.334l0.213-0.435   c0.186-0.378,0.346-0.764,0.478-1.147l0.157-0.458L25,52.292V51h6v10h30V33H31V49z M11,25h6v2h-6V25z M11,29h6v2h-6V29z M14,57   c-3.866,0-7-3.134-7-7c0-3.866,3.134-7,7-7s7,3.134,7,7C21,53.866,17.866,57,14,57z M59,55H37v-2h22V55z M33,35h26v16H33V35z    M33,53h2v2h-2V53z M33,57h26v2H33V57z"></path><rect x="47" y="45" width="2" height="4"></rect><polygon points="35,46.697 37.465,43 49.382,43 51.382,39 57,39 57,37 35,37  "></polygon><rect x="55" y="41" width="2" height="8"></rect><polygon points="51,44.236 51,49 53,49 53,41 52.618,41  "></polygon></g></svg>