<svg height='100px' width='100px'  fill="#000000" xmlns:dc="http://purl.org/dc/elements/1.1/" xmlns:cc="http://creativecommons.org/ns#" xmlns:rdf="http://www.w3.org/1999/02/22-rdf-syntax-ns#" xmlns:svg="http://www.w3.org/2000/svg" xmlns="http://www.w3.org/2000/svg" version="1.1" x="0px" y="0px" viewBox="0 0 100 100"><path d="m 78.09375,5 c -4.394093,0.081671 -8.813785,1.8238919 -12.15625,5.15625 l -10.71875,10.75 c -2.12923,2.122575 -3.613034,4.669616 -4.4375,7.375 -2.702097,0.819199 -5.25245,2.271937 -7.375,4.375 L 32.59375,43.4375 c -2.495946,2.472744 -4.129127,5.517779 -4.84375,8.71875 0.106184,-0.47328 0.229206,-0.972119 0.375,-1.4375 -2.659613,0.810421 -5.164902,2.265085 -7.25,4.34375 l -10.71875,10.75 c -6.6897225,6.669198 -6.9575653,17.625252 -0.25,24.3125 6.707835,6.686978 17.68764,6.416706 24.375,-0.25 L 45,79.125 c 2.147583,-2.140995 3.632907,-4.734619 4.4375,-7.46875 2.634234,-0.834569 5.112643,-2.319427 7.1875,-4.375 L 67.5,56.53125 C 69.682014,54.369445 71.182397,51.755291 72,49 c 2.57742,-0.837009 4.99833,-2.285943 7.03125,-4.3125 L 89.8125,33.9375 C 96.494956,27.27568 96.824641,16.429139 90.1875,9.8125 86.86884,6.5041156 82.48755,4.9181967 78.09375,5 z m 0.125,10.09375 c 1.750162,-0.0382 3.456047,0.647607 4.75,1.9375 2.587905,2.580053 2.614125,6.738767 -0.375,9.71875 L 71.8125,37.5 c -0.100665,0.10035 -0.20918,0.187627 -0.3125,0.28125 -0.806171,-1.983249 -2.004329,-3.831833 -3.625,-5.4375 -1.730458,-1.714431 -3.747524,-2.949487 -5.90625,-3.75 0.13864,-0.160756 0.251462,-0.345699 0.40625,-0.5 l 10.78125,-10.75 c 1.49229,-1.487752 3.312337,-2.211799 5.0625,-2.25 z M 60.71875,30.5 c 2.025145,0.678889 3.919189,1.809096 5.53125,3.40625 5.788958,5.735217 5.522701,15.156755 -0.375,21 L 55.03125,65.6875 C 53.549426,67.155576 51.826528,68.270547 50,69.03125 c 0.278349,-2.106627 0.15948,-4.247732 -0.34375,-6.3125 0.448997,-0.320291 0.904236,-0.689243 1.3125,-1.09375 l 10.8125,-10.71875 c 3.796403,-3.761062 3.930332,-9.508389 0.4375,-12.96875 -0.218295,-0.216281 -0.451481,-0.405353 -0.6875,-0.59375 C 61.520063,37.33482 61.511224,37.321367 61.5,37.3125 60.000244,35.407642 59.685683,32.82778 60.71875,30.5 z M 50.1875,30.875 c -0.305188,2.109858 -0.229167,4.276952 0.25,6.34375 -0.459643,0.325579 -0.892961,0.678081 -1.3125,1.09375 l -10.875,10.75 c -3.800543,3.765551 -3.872873,9.534489 -0.375,13 0.218625,0.216603 0.452036,0.405155 0.6875,0.59375 1.551741,1.939225 1.857224,4.509971 0.8125,6.84375 -2.048607,-0.669748 -3.973847,-1.801283 -5.59375,-3.40625 -5.786145,-5.732584 -5.520337,-15.222161 0.375,-21.0625 l 10.875,-10.75 c 1.516164,-1.502149 3.280673,-2.6447 5.15625,-3.40625 z m 0.96875,8.625 c 0.795803,2.031081 1.982739,3.925348 3.625,5.5625 1.716052,1.710834 3.734079,2.95678 5.875,3.75 -0.140667,0.161712 -0.280357,0.344308 -0.4375,0.5 l -10.875,10.75 c -0.125836,0.124669 -0.276314,0.229434 -0.40625,0.34375 -0.81416,-2.017083 -2.046406,-3.895196 -3.6875,-5.53125 -1.712205,-1.706866 -3.68787,-2.968175 -5.8125,-3.78125 0.131099,-0.14945 0.261058,-0.293663 0.40625,-0.4375 L 50.71875,39.875 c 0.144045,-0.14272 0.288153,-0.245991 0.4375,-0.375 z m 21.03125,0.40625 c 0.08173,0.321461 0.156482,0.64353 0.21875,0.96875 -0.06243,-0.326283 -0.13674,-0.646263 -0.21875,-0.96875 z M 72.5,41.4375 c 0.04845,0.309699 0.09392,0.625687 0.125,0.9375 -0.03092,-0.308247 -0.07711,-0.63133 -0.125,-0.9375 z m 0.1875,1.59375 c 0.02815,0.461181 0.04062,0.912459 0.03125,1.375 -0.0068,0.333312 -0.03635,0.667085 -0.0625,1 0.02576,-0.330529 0.05585,-0.669082 0.0625,-1 0.0093,-0.46364 -0.0029,-0.912736 -0.03125,-1.375 z M 62.46875,43.4375 c 0.02116,0.196976 0.02852,0.39449 0.03125,0.59375 -0.0029,-0.19423 -0.01086,-0.401693 -0.03125,-0.59375 z M 62.375,45.375 c -0.03248,0.167325 -0.07931,0.333381 -0.125,0.5 -0.05476,0.199668 -0.113609,0.396057 -0.1875,0.59375 0.07638,-0.202828 0.131256,-0.388821 0.1875,-0.59375 0.045,-0.163943 0.09278,-0.335366 0.125,-0.5 z m -34.96875,9 c -0.03694,0.400449 -0.05351,0.786335 -0.0625,1.1875 -0.0091,0.404123 0.0118,0.81555 0.03125,1.21875 -0.02012,-0.406929 -0.04018,-0.81086 -0.03125,-1.21875 0.0087,-0.397049 0.02641,-0.79113 0.0625,-1.1875 z m 0,3.125 c 0.04096,0.451843 0.110225,0.896541 0.1875,1.34375 0.09339,0.54046 0.197007,1.063856 0.34375,1.59375 0.120847,0.436384 0.280258,0.885851 0.4375,1.3125 -0.15869,-0.430589 -0.315889,-0.872028 -0.4375,-1.3125 -0.144322,-0.522731 -0.251346,-1.060766 -0.34375,-1.59375 -0.0768,-0.442972 -0.146356,-0.896212 -0.1875,-1.34375 z M 28.5,62.09375 c 0.802291,2.036061 1.999501,3.92112 3.65625,5.5625 1.742096,1.726034 3.793584,2.986804 5.96875,3.78125 -0.125375,0.143023 -0.236536,0.299461 -0.375,0.4375 L 26.96875,82.5625 c -2.984401,2.975488 -7.219912,2.959778 -9.84375,0.34375 -2.623837,-2.615619 -2.698673,-6.873122 0.28125,-9.84375 L 28.1875,62.375 c 0.09553,-0.09524 0.214625,-0.192042 0.3125,-0.28125 z" style="text-indent:0;text-transform:none;direction:ltr;block-progression:tb;baseline-shift:baseline;color:#000000;enable-background:accumulate;" fill="#000000" fill-opacity="1" fill-rule="nonzero" stroke="none" marker="none" visibility="visible" display="inline" overflow="visible"></path></svg>