<svg height='100px' width='100px'  fill="#000000" xmlns="http://www.w3.org/2000/svg" xmlns:xlink="http://www.w3.org/1999/xlink" version="1.1" x="0px" y="0px" viewBox="0 0 64 64" style="enable-background:new 0 0 64 64;" xml:space="preserve"><g><g><path d="M32,1C14.907,1,1,14.907,1,32s13.907,31,31,31s31-13.907,31-31S49.093,1,32,1z M11.858,16.265    c4.875-6.261,12.23-9.851,20.177-9.851c8.582,0,16.539,4.257,21.285,11.389c0.025,0.037,0.035,0.078,0.049,0.119l-0.024-2.936    c-0.002-0.276,0.22-0.501,0.496-0.504c0.001,0,0.002,0,0.004,0c0.274,0,0.498,0.221,0.5,0.496l0.03,3.699    c0.001,0.133-0.051,0.261-0.145,0.356s-0.222,0.148-0.355,0.148h-3.974c-0.276,0-0.5-0.224-0.5-0.5s0.224-0.5,0.5-0.5h2.462    C47.789,11.437,40.209,7.414,32.036,7.414c-7.637,0-14.704,3.45-19.388,9.465c-0.17,0.217-0.485,0.257-0.702,0.087    C11.728,16.796,11.689,16.482,11.858,16.265z M45.433,19.477v5.551v19.51c0,0.276-0.224,0.5-0.5,0.5H18.977    c-0.276,0-0.5-0.224-0.5-0.5v-19.51v-5.551c0-0.276,0.224-0.5,0.5-0.5h9.886h6.185h9.886C45.209,18.977,45.433,19.2,45.433,19.477    z M33.091,57.199c-0.35,0.014-0.702,0.021-1.055,0.021c-14.07,0-25.516-11.396-25.516-25.403c0-2.807,1.22-6.22,2.259-8.928    l-2.154,1.088c-0.248,0.124-0.548,0.025-0.672-0.221c-0.125-0.247-0.026-0.547,0.221-0.672l3.313-1.674    c0.004-0.002,0.009-0.002,0.013-0.003c0.041-0.019,0.085-0.027,0.13-0.035c0.019-0.003,0.037-0.012,0.057-0.013    c0.04-0.002,0.08,0.009,0.12,0.016c0.024,0.005,0.049,0.002,0.073,0.01c0.002,0.001,0.004,0.003,0.006,0.004    c0.002,0.001,0.005,0,0.007,0.001c0.033,0.013,0.057,0.036,0.086,0.055c0.026,0.017,0.055,0.028,0.077,0.049    c0.035,0.033,0.06,0.075,0.084,0.116c0.009,0.015,0.023,0.026,0.03,0.042l1.574,3.514c0.113,0.252,0,0.548-0.252,0.661    c-0.066,0.029-0.136,0.043-0.204,0.043c-0.191,0-0.374-0.11-0.457-0.295l-1.083-2.418c-1.018,2.647-2.227,5.997-2.227,8.66    c0,13.456,10.998,24.403,24.516,24.403c0.34,0,0.679-0.007,1.015-0.02c0.27-0.024,0.508,0.203,0.52,0.479    C33.582,56.955,33.367,57.188,33.091,57.199z M40.19,55.877l1.884,0.839c0.252,0.112,0.366,0.408,0.254,0.66    c-0.083,0.187-0.266,0.297-0.458,0.297c-0.068,0-0.137-0.014-0.203-0.043l-3.392-1.509c-0.134-0.06-0.234-0.174-0.276-0.314    c-0.042-0.14-0.02-0.292,0.06-0.415l2.014-3.109c0.15-0.232,0.459-0.298,0.691-0.147c0.231,0.15,0.298,0.459,0.147,0.691    l-1.458,2.251c10.231-3.228,17.098-12.557,17.098-23.261c0-3.017-0.546-5.962-1.624-8.753c-0.1-0.258,0.029-0.547,0.286-0.646    c0.257-0.099,0.547,0.028,0.646,0.286c1.123,2.906,1.691,5.972,1.691,9.113C57.552,42.805,50.595,52.391,40.19,55.877z"></path><path d="M35.547,25.527v5.051c0,0.185-0.102,0.355-0.266,0.441c-0.073,0.039-0.154,0.059-0.234,0.059    c-0.098,0-0.196-0.029-0.28-0.086l-2.813-1.901l-2.813,1.901c-0.153,0.104-0.352,0.114-0.514,0.027    c-0.164-0.086-0.266-0.256-0.266-0.441v-5.051h-8.886v18.51h24.956v-18.51H35.547z M31.269,37.073    c-0.095,0.083-0.211,0.123-0.328,0.123c-0.14,0-0.278-0.058-0.377-0.172l-1.131-1.299v4.878c0,0.276-0.224,0.5-0.5,0.5    s-0.5-0.224-0.5-0.5v-4.848l-1.143,1.235c-0.187,0.202-0.504,0.214-0.707,0.027c-0.203-0.188-0.215-0.504-0.027-0.707l2.05-2.214    c0.096-0.104,0.201-0.16,0.375-0.16c0.142,0.002,0.276,0.064,0.369,0.172l1.968,2.261C31.499,36.576,31.477,36.892,31.269,37.073z     M37.376,38.704l-1.795,2.214c-0.093,0.115-0.232,0.183-0.379,0.185c-0.003,0-0.006,0-0.009,0c-0.145,0-0.282-0.063-0.377-0.172    l-1.967-2.261c-0.182-0.208-0.16-0.524,0.049-0.705c0.208-0.181,0.524-0.16,0.705,0.049l1.131,1.299v-4.878    c0-0.276,0.224-0.5,0.5-0.5s0.5,0.224,0.5,0.5v4.706l0.865-1.068c0.173-0.213,0.488-0.248,0.704-0.073    C37.517,38.174,37.55,38.489,37.376,38.704z"></path><path d="M29.363,25.027v4.609l2.313-1.563c0.084-0.057,0.182-0.086,0.28-0.086s0.195,0.029,0.28,0.086l2.313,1.563v-4.609v-5.051    h-5.185V25.027z"></path><rect x="35.547" y="19.977" width="8.886" height="4.551"></rect><rect x="19.477" y="19.977" width="8.886" height="4.551"></rect></g></g></svg>