<svg height='100px' width='100px' fill="currentColor" xmlns="http://www.w3.org/2000/svg" xmlns:xlink="http://www.w3.org/1999/xlink" version="1.1" x="0px" y="0px" viewBox="0 0 30 30" style="enable-background:new 0 0 30 30;" xml:space="preserve"><polygon points="14.051,11.959 17.012,17.036 18.88,13.922 15.966,8.926 "></polygon><path d="M25,1H5C2.791,1,1,2.791,1,5v20c0,2.209,1.791,4,4,4h20c2.209,0,4-1.791,4-4V5C29,2.791,27.209,1,25,1z M26.895,13.447l-3,6  c-0.165,0.329-0.495,0.541-0.862,0.552c-0.354,0.027-0.71-0.179-0.896-0.496l-2.106-3.61l-2.173,3.621  C17.677,19.816,17.351,20,17,20c-0.002,0-0.004,0-0.006,0c-0.354-0.002-0.679-0.191-0.857-0.496l-3.289-5.639L4.846,26.534  C4.655,26.835,4.331,27,3.999,27c-0.183,0-0.367-0.05-0.533-0.154c-0.467-0.295-0.606-0.913-0.312-1.38l8.557-13.548L9.988,8.964  l-5.13,8.551c-0.285,0.473-0.899,0.626-1.372,0.343c-0.474-0.284-0.627-0.898-0.343-1.372l6-10C9.323,6.184,9.649,6,10,6  c0.002,0,0.004,0,0.006,0c0.354,0.002,0.679,0.191,0.857,0.496l2.051,3.516l2.24-3.546C15.341,6.171,15.658,6,16.018,6  c0.35,0.006,0.67,0.194,0.846,0.496l3.191,5.47l5.088-8.481c0.284-0.474,0.898-0.628,1.372-0.343  c0.474,0.284,0.627,0.898,0.343,1.372l-5.653,9.422l1.728,2.963l2.173-4.347c0.247-0.494,0.847-0.695,1.342-0.447  C26.941,12.353,27.142,12.953,26.895,13.447z"></path></svg>
