<svg height='100px' width='100px'  fill="#000000" xmlns="http://www.w3.org/2000/svg" xmlns:xlink="http://www.w3.org/1999/xlink" version="1.1" x="0px" y="0px" viewBox="0 0 36 36" style="enable-background:new 0 0 36 36;" xml:space="preserve"><g><path d="M31.04,25.34c-0.11,0.05-0.23,0.05-0.33,0l-1.83-0.92l-1.63,0.81v0.68l3.63,7.25l3.63-7.25v-0.68l-1.63-0.81L31.04,25.34z"></path><path d="M27.25,24.39l1.46-0.73c0.11-0.05,0.23-0.05,0.33,0l1.83,0.92l1.83-0.92c0.11-0.05,0.23-0.05,0.33,0l1.46,0.73V6.38h-7.25   V24.39z"></path><rect x="27.25" y="2.38" width="7.25" height="3.25"></rect><path d="M23.88,1.63h-22C1.67,1.63,1.5,1.79,1.5,2v32c0,0.21,0.17,0.38,0.38,0.38h22c0.21,0,0.38-0.17,0.38-0.38V2   C24.25,1.79,24.08,1.63,23.88,1.63z M5.88,9.63h6.28c0.21,0,0.38,0.17,0.38,0.38s-0.17,0.38-0.38,0.38H5.88   c-0.21,0-0.38-0.17-0.38-0.38S5.67,9.63,5.88,9.63z M19.88,30.38h-14c-0.21,0-0.38-0.17-0.38-0.38s0.17-0.38,0.38-0.38h14   c0.21,0,0.38,0.17,0.38,0.38S20.08,30.38,19.88,30.38z M19.88,26.38h-14c-0.21,0-0.38-0.17-0.38-0.38s0.17-0.38,0.38-0.38h14   c0.21,0,0.38,0.17,0.38,0.38S20.08,26.38,19.88,26.38z M19.88,22.38h-14c-0.21,0-0.38-0.17-0.38-0.38s0.17-0.38,0.38-0.38h14   c0.21,0,0.38,0.17,0.38,0.38S20.08,22.38,19.88,22.38z M19.88,18.38h-14c-0.21,0-0.38-0.17-0.38-0.38s0.17-0.38,0.38-0.38h14   c0.21,0,0.38,0.17,0.38,0.38S20.08,18.38,19.88,18.38z M19.88,14.38h-14c-0.21,0-0.38-0.17-0.38-0.38s0.17-0.38,0.38-0.38h14   c0.21,0,0.38,0.17,0.38,0.38S20.08,14.38,19.88,14.38z"></path></g></svg>