<svg height='100px' width='100px'  fill="#000000" xmlns="http://www.w3.org/2000/svg" xmlns:xlink="http://www.w3.org/1999/xlink" xml:space="preserve" version="1.1" style="shape-rendering:geometricPrecision;text-rendering:geometricPrecision;image-rendering:optimizeQuality;" viewBox="0 0 333 333" x="0px" y="0px" fill-rule="evenodd"><defs><style type="text/css">

    .fil0 {fill:#000000}

  </style></defs><g><path class="fil0" d="M102 8l129 0c14,0 25,11 25,25l0 268c0,13 -11,24 -25,24l-129 0c-13,0 -24,-11 -24,-24l0 -268c0,-14 11,-25 24,-25zm52 279l25 0c3,0 6,2 6,5l0 16c0,3 -3,6 -6,6l-25 0c-3,0 -5,-3 -5,-6l0 -16c0,-3 2,-5 5,-5zm0 5l25 0c0,0 0,0 0,0l0 16c0,1 0,1 0,1l-25 0c0,0 0,0 0,-1l0 -16c0,0 0,0 0,0zm-55 -241l135 0c2,0 4,2 4,4l0 215c0,3 -2,5 -4,5l-135 0c-2,0 -4,-2 -4,-5l0 -215c0,-2 2,-4 4,-4zm51 -21l33 0c5,0 5,7 0,7l-33 0c-4,0 -4,-7 0,-7z"></path></g></svg>
