<?xml version="1.0" encoding="UTF-8" standalone="no"?>
<svg
   version="1.1"
   x="0px"
   y="0px"
   viewBox="0 0 100 60"
   enable-background="new 0 0 100 100"
   xml:space="preserve"
   id="svg11226"
   sodipodi:docname="motif-markets-logo.svg"
   inkscape:version="1.2 (dc2aedaf03, 2022-05-15)"
   width="100"
   height="60"
   xmlns:inkscape="http://www.inkscape.org/namespaces/inkscape"
   xmlns:sodipodi="http://sodipodi.sourceforge.net/DTD/sodipodi-0.dtd"
   xmlns:xlink="http://www.w3.org/1999/xlink"
   xmlns="http://www.w3.org/2000/svg"
   xmlns:svg="http://www.w3.org/2000/svg"><defs
     id="defs11230"><linearGradient
       id="linearGradient15228"
       inkscape:swatch="solid"><stop
         style="stop-color:#306cbf;stop-opacity:1;"
         offset="0"
         id="stop15226" /></linearGradient><linearGradient
       id="linearGradient15210"
       inkscape:swatch="solid"><stop
         style="stop-color:#0c8a4c;stop-opacity:1;"
         offset="0"
         id="stop15208" /></linearGradient><linearGradient
       id="linearGradient15204"
       inkscape:swatch="solid"><stop
         style="stop-color:#1f5a1c;stop-opacity:1;"
         offset="0"
         id="stop15202" /></linearGradient><linearGradient
       inkscape:collect="always"
       xlink:href="#linearGradient15204"
       id="linearGradient15206"
       x1="39.481628"
       y1="53.146069"
       x2="63.506035"
       y2="53.146069"
       gradientUnits="userSpaceOnUse"
       gradientTransform="matrix(1.2499999,0,0,1.2903226,-14.22793,-38.682283)" /><linearGradient
       inkscape:collect="always"
       xlink:href="#linearGradient15210"
       id="linearGradient15216"
       gradientUnits="userSpaceOnUse"
       x1="10"
       y1="54.950001"
       x2="90"
       y2="54.950001" /><linearGradient
       inkscape:collect="always"
       xlink:href="#linearGradient15210"
       id="linearGradient15218"
       gradientUnits="userSpaceOnUse"
       x1="10"
       y1="54.950001"
       x2="90"
       y2="54.950001" /><linearGradient
       inkscape:collect="always"
       xlink:href="#linearGradient15210"
       id="linearGradient15220"
       gradientUnits="userSpaceOnUse"
       x1="10"
       y1="54.950001"
       x2="90"
       y2="54.950001" /><linearGradient
       inkscape:collect="always"
       xlink:href="#linearGradient15228"
       id="linearGradient15230"
       x1="11.629214"
       y1="52.58427"
       x2="91.629211"
       y2="52.58427"
       gradientUnits="userSpaceOnUse"
       gradientTransform="matrix(1.2499999,0,0,1.2903226,-14.536518,-37.850667)" /></defs><sodipodi:namedview
     id="namedview11228"
     pagecolor="#ffffff"
     bordercolor="#666666"
     borderopacity="1.0"
     inkscape:showpageshadow="2"
     inkscape:pageopacity="0.0"
     inkscape:pagecheckerboard="0"
     inkscape:deskcolor="#d1d1d1"
     showgrid="false"
     inkscape:zoom="4"
     inkscape:cx="-21.75"
     inkscape:cy="35.75"
     inkscape:window-width="3840"
     inkscape:window-height="2054"
     inkscape:window-x="-11"
     inkscape:window-y="-11"
     inkscape:window-maximized="1"
     inkscape:current-layer="svg11226" /><g
     id="g7840"><path
       d="M 98.12499,60 H 1.8750004 C 0.87500019,60 0,59.096772 0,58.064514 V 1.9354842 C 0,0.90322594 0.87500019,0 1.8750004,0 H 98.12499 C 99.124994,0 100,0.90322594 100,1.9354842 V 58.064514 C 100,59.225805 99.124994,60 98.12499,60 Z M 3.7499999,56.129031 H 96.25 V 4 H 3.7499999 Z"
       id="money-border"
       style="fill:url(#linearGradient15230);fill-opacity:1;stroke-width:1.27" /><g
       id="money-middle"
       style="fill:url(#linearGradient15220);fill-opacity:1"
       transform="matrix(1.25,0,0,1.2903226,-11.793422,-41.019365)"><path
         d="m 29.5,55 c 0,-6.1 2.6,-11.5 6.8,-15.2 H 19.5 c -0.8,0 -1.5,0.7 -1.5,1.5 v 27.5 c 0,0.8 0.7,1.5 1.5,1.5 H 36.3 C 32.1,66.5 29.5,61.1 29.5,55 Z"
         id="money-middle-left"
         style="fill:url(#linearGradient15216);fill-opacity:1" /><path
         d="M 80.5,39.8 H 63.7 c 4.2,3.8 6.8,9.2 6.8,15.2 0,6 -2.6,11.5 -6.8,15.2 h 16.8 c 0.8,0 1.5,-0.7 1.5,-1.5 V 41.2 c 0,-0.8 -0.7,-1.4 -1.5,-1.4 z"
         id="money-middle-right"
         style="fill:url(#linearGradient15218);fill-opacity:1" /></g><path
       d="m 65.144426,12.832829 c -0.09732,-0.904195 -1.31391,-1.054894 -1.849204,-1.105127 -2.384498,-0.301398 -8.02943,0.100458 -13.625699,2.360949 -4.866325,1.908855 -11.192541,5.82703 -13.917682,13.613144 v 0.05022 c -1.55722,5.475398 -0.243316,9.443804 4.233702,12.55825 0.04867,0.05023 0.09732,0.05023 0.194652,0.100457 -0.924602,3.66701 -1.313907,6.480057 -1.36257,6.781454 -0.04866,0.452096 0.243316,0.853962 0.681285,0.954427 0.04866,0 0.09732,0 0.09732,0 0.389307,0 0.72995,-0.301398 0.778613,-0.703262 0,-0.100458 0.437967,-2.963747 1.362569,-6.73122 0.729947,0.100457 1.897864,0.301397 3.309098,0.301397 3.552414,0 8.467398,-1.00466 10.657244,-6.027959 1.167917,-2.71258 2.141183,-5.977728 3.065783,-9.092172 1.557222,-5.324696 3.211771,-10.800095 5.450278,-11.704288 0.87594,-0.452098 0.973265,-0.954427 0.924605,-1.356291 z m -7.932107,12.457782 c -0.9246,3.064212 -1.849201,6.279125 -3.017118,8.891241 -2.481826,5.827026 -9.68398,5.173997 -12.019813,4.822366 1.70321,-6.128423 4.623005,-13.763841 9.391999,-16.426188 0.389304,-0.200934 0.535294,-0.703262 0.340643,-1.105126 C 51.713375,21.07104 51.178081,20.92034 50.83744,21.121273 45.533149,24.085019 42.370038,32.272998 40.618162,38.652587 37.017088,36.040472 35.995158,32.82556 37.309067,28.204124 39.790888,21.171506 45.58181,17.55473 50.010166,15.746343 c 5.109636,-2.109789 10.024619,-2.511651 12.457779,-2.411184 -2.28717,1.959085 -3.698403,6.630755 -5.255626,11.955452 z"
       id="leaf"
       style="fill:url(#linearGradient15206);fill-opacity:1;stroke-width:0.49442" /></g></svg>
