<svg viewBox="0 0 1010 668" xmlns="http://www.w3.org/2000/svg" height="668" width="1010" xmlns:xlink="http://www.w3.org/1999/xlink">
    <style type="text/css"><![CDATA[
.st2 {fill:#303030;font-family:Arial;font-size:10pt;font-weight:bold}
.st1 {fill:#303030;font-family:Arial;font-size:10pt}
]]></style>
    <defs/>
    <g transform="translate(-68,-40)">
        <g transform="translate(83,119)" id="shape1">
            <path d="M0,0L68,0L68,36.7L0,36.7L0,0z" fill="#ffffff" stroke="#000000"/>
            <text class="st1">
                <tspan x="20" y="14.3">Feed </tspan>
                <tspan x="16" y="30.3">Server</tspan>
            </text>
        </g>
        <g transform="translate(99,576)" id="shape2">
            <path d="M0,0L350,0L350,33.5L0,33.5L0,0z" fill="#ffffff" stroke="#000000"/>
            <text class="st1">
                <tspan x="158" y="20.8">Proxy</tspan>
            </text>
        </g>
        <g transform="translate(341,445.69)" id="shape3">
            <path d="M0,0L137,0L137,60.3L0,60.3L0,0z" fill="#ffffff" stroke="#000000"/>
            <text class="st1">
                <tspan x="29.5" y="34.2">Trading Agent</tspan>
            </text>
        </g>
        <g transform="translate(333.61,292.57)" id="shape4">
            <path d="M0,0L190.8,0L190.8,23.8L0,23.8L0,0z" fill="#ffffff" stroke="#000000"/>
            <text class="st1">
                <tspan x="67.4" y="15.9">OMS Hub</tspan>
            </text>
        </g>
        <g transform="translate(332.61,248.02)" id="shape5">
            <path d="M0,0L190.8,0L190.8,33L0,33L0,0z" fill="#ffffff" stroke="#000000"/>
            <text class="st1">
                <tspan x="45.4" y="12.5">OMS Event Store</tspan>
                <tspan x="68.4" y="28.5">Database</tspan>
            </text>
        </g>
        <g transform="translate(545,202.66)" id="shape6">
            <path d="M0,0L99,0L99,27L0,27L0,0z" fill="#ffffff" stroke="#000000"/>
            <text class="st1">
                <tspan x="5" y="17.5">Trading Monitor</tspan>
            </text>
        </g>
        <a xlink:href="http:///info/technology/mview">
            <g transform="translate(774,343.4)" id="shape7">
                <path d="M0,0L99.4,0L99.4,47.1L0,47.1L0,0z" fill="#ffffff" stroke="#000000"/>
                <text class="st1">
                    <tspan x="30.2" y="27.6">MView</tspan>
                </text>
            </g>
        </a>
        <g transform="translate(848,437.54)" id="shape8">
            <path d="M0,0L51.3,0L51.3,35.5L0,35.5L0,0z" fill="#ffffff" stroke="#000000"/>
            <text class="st1">
                <tspan x="11.1" y="21.7">Vault</tspan>
            </text>
        </g>
        <g transform="translate(258,449)" id="shape9">
            <path d="M0,0L56,0L56,52.8L0,52.8L0,0z" fill="#ffffff" stroke="#000000"/>
            <text class="st1">
                <tspan x="8" y="30.4">Vetting</tspan>
            </text>
        </g>
        <g transform="translate(915,437.54)" id="shape10">
            <path d="M0,0L60.6,0L60.6,35.5L0,35.5L0,0z" fill="#ffffff" stroke="#000000"/>
            <text class="st1">
                <tspan x="4.3" y="21.7">Passport</tspan>
            </text>
        </g>
        <g transform="translate(893.24,618.5)" id="shape11">
            <path d="M0,0L134.6,0L134.6,33L0,33L0,0z" fill="#ffffff" stroke="#000000"/>
            <text class="st1">
                <tspan x="41.3" y="12.5">Passport</tspan>
                <tspan x="39.3" y="28.5">Front End</tspan>
            </text>
        </g>
        <g transform="translate(773.69,618.5)" id="shape12">
            <path d="M0,0L100.3,0L100.3,33L0,33L0,0z" fill="#ffffff" stroke="#000000"/>
            <text class="st1">
                <tspan x="31.2" y="12.5">MView</tspan>
                <tspan x="22.2" y="28.5">Front End</tspan>
            </text>
        </g>
        <g transform="translate(662.5,349.23)" id="shape13">
            <path d="M0,0L85,0L85,35.5L0,35.5L0,0z" fill="#ffffff" stroke="#000000"/>
            <text class="st1">
                <tspan x="26" y="21.7">Fetch</tspan>
            </text>
        </g>
        <g transform="translate(653,618.5)" id="shape14">
            <path d="M0,0L104,0L104,33L0,33L0,0z" fill="#ffffff" stroke="#000000"/>
            <text class="st1">
                <tspan x="7" y="20.5">SFTP (Reports)</tspan>
            </text>
        </g>
        <g transform="translate(452,122)" id="shape15">
            <path d="M0,0L65,0L65,33.6L0,33.6L0,0z" fill="#ffffff" stroke="#000000"/>
            <text class="st1">
                <tspan x="12" y="12.8">Trading </tspan>
                <tspan x="10" y="28.8">Adapter</tspan>
            </text>
        </g>
        <g transform="translate(966.5,128)" id="shape16">
            <path d="M0,9.9L0,209.1C-0,214.6,22.2,219,49.5,219C76.8,219,99,214.6,99,209.1L99,9.9C99,4.4,76.8,0,49.5,0C22.2,0,-0,4.4,0,9.9z" fill="#ffffff"/>
            <path d="M0,9.9L0,209.1C-0,214.6,22.2,219,49.5,219C76.8,219,99,214.6,99,209.1L99,9.9C99,4.4,76.8,0,49.5,0C22.2,0,-0,4.4,0,9.9zM0,9.9C-0,15.4,22.2,19.8,49.5,19.8C76.8,19.8,99,15.4,99,9.9" stroke="#000000" fill="none"/>
            <text class="st1">
                <tspan x="14" y="105.5">PostgreSQL </tspan>
                <tspan x="22" y="121.5">Database</tspan>
            </text>
        </g>
        <path d="M0,0L0,196.1L.1,228.1" stroke="#000000" fill="none" transform="translate(823.41,390.4)" id="shape17"/>
        <path d="M0,0L0,113.5L-0.2,145.5" stroke="#000000" fill="none" transform="translate(960.91,473)" id="shape18"/>
        <path d="M0,0L0,-128L21.4,-128" stroke="#000000" fill="none" transform="translate(945.6,437.54)" id="shape19"/>
        <path d="M0,0L0,-15L-35.8,-15L-35.8,-46.5" stroke="#000000" fill="none" transform="translate(873.71,437.54)" id="shape20"/>
        <path d="M0,0L0,-25L-67.9,-25L-67.9,-47" stroke="#000000" fill="none" transform="translate(925.29,438)" id="shape21"/>
        <path d="M0,0L0,75.7L-0.3,233.8" stroke="#000000" fill="none" transform="translate(705,384.69)" id="shape22"/>
        <path d="M0,0L0,-165.9L72.1,-165.9" stroke="#000000" fill="none" transform="translate(894.89,438)" id="shape23"/>
        <path d="M0,0L11.4,0L11.4,-105.5L111.4,-105.5" stroke="#000000" fill="none" transform="translate(855.13,343)" id="shape24"/>
        <path d="M0,0L0,-17.4L-0.4,-49.4" stroke="#000000" fill="none" transform="translate(484.87,205)" id="shape25"/>
        <path d="M0,0L0,61.7L.1,130.1" stroke="#000000" fill="none" transform="translate(428.36,316.29)" id="shape26"/>
        <path d="M0,0L0,66L-318,66" stroke="#000000" fill="none" transform="translate(795.99,391)" id="shape27"/>
        <path d="M0,0L0,20.1L-395.7,20.1" stroke="#000000" fill="none" transform="translate(873.71,472.86)" id="shape28"/>
        <path d="M0,0L0,69" stroke="#000000" fill="none" transform="translate(364,506)" id="shape29"/>
        <path d="M0,0L0,419.9" stroke="#000000" fill="none" transform="translate(110.24,156.12)" id="shape30"/>
        <path d="M0,0L0,15L294,15L294,27" stroke="#000000" fill="none" transform="translate(497.48,316)" id="shape31"/>
        <path d="M0,0L0,-9L-0.3,-25" stroke="#000000" fill="none" transform="translate(117.27,119)" id="shape32"/>
        <path d="M0,0L0,-13L.5,-29" stroke="#000000" fill="none" transform="translate(484.5,122)" id="shape33"/>
        <path d="M0,0L0,255.2" stroke="#000000" fill="none" transform="translate(705,94)" id="shape34"/>
        <path d="M0,0L69.3,0L69.3,-75.2" stroke="#000000" fill="none" transform="translate(524.84,304.75)" id="shape35"/>
        <path d="M0,0L0,30.9L843,30.9" stroke="#000000" fill="none" transform="translate(123.99,156.12)" id="shape36"/>
        <g transform="translate(549,121)" id="shape37">
            <path d="M0,0L90,0L90,33.7L0,33.7L0,0z" fill="#ffffff" stroke="#000000"/>
            <text class="st1">
                <tspan x="13" y="12.8">Trade Feed </tspan>
                <tspan x="23" y="28.8">Adapter</tspan>
            </text>
        </g>
        <path d="M0,0L0,-28" stroke="#000000" fill="none" transform="translate(594,121)" id="shape38"/>
        <path d="M0,0L0,-9.7L-0.2,-48" stroke="#000000" fill="none" transform="translate(594.17,202.66)" id="shape39"/>
        <path d="M0,0L10.5,0L26.5,.4" stroke="#000000" fill="none" transform="translate(747.5,366.96)" id="shape40"/>
        <g transform="translate(893,683)" id="shape41">
            <path d="M0,12C0,5.4,12.5,0,28,0C43.5,0,56,5.4,56,12C56,18.6,43.5,24,28,24C12.5,24,0,18.6,0,12z" fill="#ffffff" stroke="#000000"/>
            <text class="st1">
                <tspan x="11" y="16">Token</tspan>
            </text>
        </g>
        <g transform="translate(964,683)" id="shape42">
            <path d="M0,12C0,5.4,21.7,0,48.5,0C75.3,0,97,5.4,97,12C97,18.6,75.3,24,48.5,24C21.7,24,0,18.6,0,12z" fill="#ffffff" stroke="#000000"/>
            <text class="st1">
                <tspan x="7" y="16">Administration</tspan>
            </text>
        </g>
        <g transform="translate(783,683)" id="shape43">
            <path d="M0,12C0,5.4,17.9,0,40,0C62.1,0,80,5.4,80,12C80,18.6,62.1,24,40,24C17.9,24,0,18.6,0,12z" fill="#ffffff" stroke="#000000"/>
            <text class="st1">
                <tspan x="15" y="16">Operator</tspan>
            </text>
        </g>
        <g transform="translate(664.5,683)" id="shape44">
            <path d="M0,12C0,5.4,17.9,0,40,0C62.1,0,80,5.4,80,12C80,18.6,62.1,24,40,24C17.9,24,0,18.6,0,12z" fill="#ffffff" stroke="#000000"/>
            <text class="st1">
                <tspan x="24" y="16">Client</tspan>
            </text>
        </g>
        <g transform="translate(178.5,683)" id="shape45">
            <path d="M0,12C0,5.4,17.9,0,40,0C62.1,0,80,5.4,80,12C80,18.6,62.1,24,40,24C17.9,24,0,18.6,0,12z" fill="#ffffff" stroke="#000000"/>
            <text class="st1">
                <tspan x="6" y="16">WebSocket</tspan>
            </text>
        </g>
        <g transform="translate(284,683)" id="shape46">
            <path d="M0,12C0,5.4,17.9,0,40,0C62.1,0,80,5.4,80,12C80,18.6,62.1,24,40,24C17.9,24,0,18.6,0,12z" fill="#ffffff" stroke="#000000"/>
            <text class="st1">
                <tspan x="34" y="16">IQ</tspan>
            </text>
        </g>
        <path d="M0,0L0,-15.5L.5,-31.6" stroke="#000000" fill="none" transform="translate(823,683)" id="shape47"/>
        <path d="M0,0L0,-15.5L.2,-31.6" stroke="#000000" fill="none" transform="translate(704.5,683)" id="shape48"/>
        <path d="M0,0L0,-15.5L.5,-31" stroke="#000000" fill="none" transform="translate(1012.5,683)" id="shape49"/>
        <path d="M0,0L0,-31" stroke="#000000" fill="none" transform="translate(921,683)" id="shape50"/>
        <g transform="translate(794,41)" id="shape51">
            <text class="st2">
                <tspan x="195" y="16">Motif Markets</tspan>
                <tspan x="10" y="32">Motionite Software Top Level Components</tspan>
                <tspan x="114" y="48">Release Date: 27 Jan 2020</tspan>
                <tspan x="221" y="64">Version 5</tspan>
            </text>
        </g>
        <path d="M0,0L445,0L445,118" stroke="#000000" fill="none" transform="translate(478,501)" id="shape52"/>
        <path d="M0,0L0,-28L43.9,-28L43.9,0" stroke="#000000" fill="none" transform="translate(861.1,619)" id="shape53"/>
        <path d="M0,0L0,-13.2L489.8,-13.2L489.8,42.8" stroke="#000000" fill="none" transform="translate(425.18,576.23)" id="shape54"/>
        <path d="M0,0L0,-33.2L492.5,-33.2L492.5,-103.2" stroke="#000000" fill="none" transform="translate(393.98,577.23)" id="shape55"/>
        <g transform="translate(890,598)" id="shape56">
            <path d="M0,0L49,0L49,14L0,14L0,0z" fill="#ffffff"/>
            <text class="st1">
                <tspan x="8" y="11">Token</tspan>
            </text>
        </g>
        <path d="M0,0L0,222.9L234.1,222.9L234.1,290.3" stroke="#000000" fill="none" transform="translate(117.27,155.65)" id="shape57"/>
        <g transform="translate(333,204.66)" id="shape58">
            <path d="M0,0L190.8,0L190.8,23.8L0,23.8L0,0z" fill="#ffffff" stroke="#000000"/>
            <text class="st1">
                <tspan x="60.4" y="15.9">OMS Bridge</tspan>
            </text>
        </g>
        <path d="M0,0L0,11.6L.4,19.6" stroke="#000000" fill="none" transform="translate(427.6,228.39)" id="shape59"/>
        <path d="M0,0L0,3.5L.4,11.5" stroke="#000000" fill="none" transform="translate(428,281.02)" id="shape60"/>
        <path d="M0,0L-199.7,0L-199.7,-51" stroke="#000000" fill="none" transform="translate(662.5,366.96)" id="shape61"/>
        <g transform="translate(69,57)" id="shape62">
            <path d="M14,0L96,0L82,37L0,37L14,0z" fill="#ffffff" stroke="#000000"/>
            <text class="st1">
                <tspan x="19" y="14.5">Exchange</tspan>
                <tspan x="31" y="30.5">(Data)</tspan>
            </text>
        </g>
        <g transform="translate(175,56)" id="shape63">
            <path d="M14,0L96,0L82,37L0,37L14,0z" fill="#ffffff" stroke="#000000"/>
            <text class="st1">
                <tspan x="19" y="14.5">Exchange</tspan>
                <tspan x="31" y="30.5">(Data)</tspan>
            </text>
        </g>
        <g transform="translate(333,56)" id="shape64">
            <path d="M14,0L96,0L82,37L0,37L14,0z" fill="#ffffff" stroke="#000000"/>
            <text class="st1">
                <tspan x="19" y="14.5">Exchange</tspan>
                <tspan x="23" y="30.5">(Trading)</tspan>
            </text>
        </g>
        <g transform="translate(437,56)" id="shape65">
            <path d="M14,0L96,0L82,37L0,37L14,0z" fill="#ffffff" stroke="#000000"/>
            <text class="st1">
                <tspan x="19" y="14.5">Exchange</tspan>
                <tspan x="23" y="30.5">(Trading)</tspan>
            </text>
        </g>
        <g transform="translate(557,56)" id="shape66">
            <path d="M14,0L208,0L194,37L0,37L14,0z" fill="#ffffff" stroke="#000000"/>
            <text class="st1">
                <tspan x="73" y="22.5">Settlement</tspan>
            </text>
        </g>
        <g transform="translate(190,120.5)" id="shape67">
            <path d="M0,0L65,0L65,36.7L0,36.7L0,0z" fill="#ffffff" stroke="#000000"/>
            <text class="st1">
                <tspan x="18" y="14.3">Feed </tspan>
                <tspan x="15" y="30.3">Server</tspan>
            </text>
        </g>
        <path d="M0,0L0,-11.5L.2,-27.5" stroke="#000000" fill="none" transform="translate(222.76,120.5)" id="shape68"/>
        <path d="M0,0L0,386.8L.2,418.8" stroke="#000000" fill="none" transform="translate(222.76,157.15)" id="shape69"/>
        <path d="M0,0L10.9,0L26.9,-0.1" stroke="#000000" fill="none" transform="translate(314.14,475.98)" id="shape70"/>
        <path d="M0,0L0,206.4L136.8,206.4L136.8,288.4" stroke="#000000" fill="none" transform="translate(229.18,157.62)" id="shape71"/>
        <path d="M0,0L0,14.1L732.4,14.1" stroke="#000000" fill="none" transform="translate(234.65,157.62)" id="shape72"/>
        <path d="M0,0L0,49.8" stroke="#000000" fill="none" transform="translate(381,155.15)" id="shape73"/>
        <g transform="translate(99,626)" id="shape74">
            <path d="M0,0L81,0L81,33.5L0,33.5L0,0z" fill="#ffffff" stroke="#000000"/>
            <text class="st1">
                <tspan x="24" y="20.8">Proxy</tspan>
            </text>
        </g>
        <g transform="translate(200.5,626)" id="shape75">
            <path d="M0,0L81,0L81,33.5L0,33.5L0,0z" fill="#ffffff" stroke="#000000"/>
            <text class="st1">
                <tspan x="24" y="20.8">Proxy</tspan>
            </text>
        </g>
        <g transform="translate(301,626)" id="shape76">
            <path d="M0,0L81,0L81,33.5L0,33.5L0,0z" fill="#ffffff" stroke="#000000"/>
            <text class="st1">
                <tspan x="24" y="20.8">Proxy</tspan>
            </text>
        </g>
        <path d="M0,0L0,11.5L270.2,11.5L270.2,-49.5" stroke="#000000" fill="none" transform="translate(139.75,659.5)" id="shape77" stroke-width="2"/>
        <path d="M0,0L0,7.5L.2,10.5" stroke="#000000" fill="none" transform="translate(341.75,659.5)" id="shape78" stroke-width="2"/>
        <path d="M0,0L0,12" stroke="#000000" fill="none" transform="translate(324,671)" id="shape79" stroke-width="2.66667"/>
        <path d="M0,0L0,7.5L-0.3,10.5" stroke="#000000" fill="none" transform="translate(241.25,659.5)" id="shape80" stroke-width="2"/>
        <path d="M0,0L12,0" stroke="#000000" fill="none" transform="matrix(-0.04,1,-1,-0.04,219,671)" id="shape81" stroke-width="2"/>
        <path d="M0,0L0,-8.5L.2,-17" stroke="#000000" fill="none" transform="translate(139.75,626)" id="shape82"/>
        <path d="M0,0L0,-8.5L-0.3,-16" stroke="#000000" fill="none" transform="translate(241.25,626)" id="shape83"/>
        <path d="M0,0L0,-8.5L.2,-17" stroke="#000000" fill="none" transform="translate(341.75,626)" id="shape84"/>
        <g transform="translate(348.5,121.5)" id="shape85">
            <path d="M0,0L65,0L65,33.6L0,33.6L0,0z" fill="#ffffff" stroke="#000000"/>
            <text class="st1">
                <tspan x="12" y="12.8">Trading </tspan>
                <tspan x="10" y="28.8">Adapter</tspan>
            </text>
        </g>
        <path d="M0,0L0,-28.5" stroke="#000000" fill="none" transform="translate(381,121.5)" id="shape86"/>
    </g>
</svg>
