<svg xmlns="http://www.w3.org/2000/svg" height="352" xmlns:xlink="http://www.w3.org/1999/xlink" width="556" viewBox="0 0 556 352">
    <style type="text/css"><![CDATA[
.st2 {fill:#303030;font-family:Arial;font-size:10pt;font-weight:bold}
.st1 {fill:#303030;font-family:Arial;font-size:10pt}
.st3 {fill:#303030;font-family:Arial;font-size:8pt}
]]></style>
    <defs/>
    <g transform="translate(-50,-50.5)">
        <path stroke="#000000" fill="#ffffff" d="M0,0L548,0L548,278L0,278L0,0z" stroke-width="2" transform="translate(56,52.5)" id="shape1"/>
        <g transform="translate(75,90.5)" id="shape2">
            <path stroke="#000000" fill="#ffffff" d="M0,0L241,0L241,38L0,38L0,0z" stroke-width="2.33333"/>
            <text class="st1">
                <tspan x="98" y="15.7">Prodigy</tspan>
                <tspan x="68" y="31.7">(Matching Engine)</tspan>
            </text>
        </g>
        <g transform="translate(349,90)" id="shape3">
            <path stroke="#000000" fill="#ffffff" d="M0,0L236,0L236,38L0,38L0,0z" stroke-width="2.33333"/>
            <text class="st1">
                <tspan x="75.3" y="15.7">Asset Registry</tspan>
                <tspan x="86.7" y="31.7">Settlement</tspan>
            </text>
        </g>
        <g transform="translate(160,232.5)" id="shape4">
            <path stroke="#000000" fill="#ffffff" d="M0,0L260,0L260,66L0,66L0,0z" stroke-width="2"/>
            <text class="st2">
                <tspan x="100.7" y="37.3">Motionite</tspan>
            </text>
        </g>
        <g transform="translate(268.5,61)" id="shape5">
            <text class="st2">
                <tspan x="39.3" y="13.8">XStack</tspan>
            </text>
        </g>
        <path stroke="#000000" fill="none" d="M0,0L17,0L33,-0.5" transform="translate(316,109.5)" id="shape6"/>
        <g transform="translate(75,148.5)" id="shape7">
            <path stroke="#000000" fill="#ffffff" d="M0,0L199,0L199,28L0,28L0,0z"/>
            <text class="st1">
                <tspan x="68" y="18.7">FIX Server</tspan>
            </text>
        </g>
        <g transform="translate(51,354.5)" id="shape8">
            <path stroke="#000000" fill="#ffffff" d="M0,23.5C0,10.5,17,0,38,0C59,0,76,10.5,76,23.5C76,36.5,59,47,38,47C17,47,0,36.5,0,23.5z"/>
            <text class="st1">
                <tspan x="8" y="20.2">Enterprise</tspan>
                <tspan x="13.3" y="36.2">Partners</tspan>
            </text>
        </g>
        <g transform="translate(146.6,354.5)" id="shape9">
            <path stroke="#000000" fill="#ffffff" d="M0,23.5C0,10.5,17,0,38,0C59,0,76,10.5,76,23.5C76,36.5,59,47,38,47C17,47,0,36.5,0,23.5z"/>
            <text class="st1">
                <tspan x="27.3" y="20.2">API </tspan>
                <tspan x="13.3" y="36.2">Partners</tspan>
            </text>
        </g>
        <g transform="translate(242.2,354.5)" id="shape10">
            <path stroke="#000000" fill="#ffffff" d="M0,23.5C0,10.5,17,0,38,0C59,0,76,10.5,76,23.5C76,36.5,59,47,38,47C17,47,0,36.5,0,23.5z"/>
            <text class="st1">
                <tspan x="27.3" y="20.2">API</tspan>
                <tspan x="6.7" y="36.2">Customers</tspan>
            </text>
        </g>
        <g transform="translate(336.8,354.5)" id="shape11">
            <path stroke="#000000" fill="#ffffff" d="M0,23.5C0,10.5,17,0,38,0C59,0,76,10.5,76,23.5C76,36.5,59,47,38,47C17,47,0,36.5,0,23.5z"/>
            <text class="st1">
                <tspan x="16.7" y="20.2">Trading</tspan>
                <tspan x="10.7" y="36.2">Terminals</tspan>
            </text>
        </g>
        <g transform="translate(433.4,354.5)" id="shape12">
            <path stroke="#000000" fill="#ffffff" d="M0,23.5C0,10.5,17,0,38,0C59,0,76,10.5,76,23.5C76,36.5,59,47,38,47C17,47,0,36.5,0,23.5z"/>
            <text class="st1">
                <tspan x="8.7" y="28.2">Registries</tspan>
            </text>
        </g>
        <g transform="translate(529,354.5)" id="shape13">
            <path stroke="#000000" fill="#ffffff" d="M0,23.5C0,10.5,17,0,38,0C59,0,76,10.5,76,23.5C76,36.5,59,47,38,47C17,47,0,36.5,0,23.5z"/>
            <text class="st1">
                <tspan x="6.7" y="20.2">Regulatory</tspan>
                <tspan x="7.3" y="36.2">Authorities</tspan>
            </text>
        </g>
        <path stroke="#000000" fill="none" d="M0,0L0,-24L-0.2,-57" transform="translate(280.2,354.5)" id="shape14"/>
        <path stroke="#000000" fill="none" d="M0,0L0,-24L-0.8,-58" transform="translate(374.8,354.5)" id="shape15"/>
        <path stroke="#000000" fill="none" d="M0,0L0,-178" transform="translate(89,354.5)" id="shape16"/>
        <path stroke="#000000" fill="none" d="M0,0L0,-38L-0.6,-57" transform="translate(184.6,354.5)" id="shape17"/>
        <path stroke="#000000" fill="none" d="M0,0L0,54" transform="translate(232,176.5)" id="shape18"/>
        <path stroke="#000000" fill="none" d="M0,0L0,-12L-0.5,-20" transform="translate(174.5,148.5)" id="shape19"/>
        <path stroke="#000000" fill="none" d="M0,0L0,-227L-2.4,-227" transform="translate(471.4,354.5)" id="shape20"/>
        <path stroke="#000000" fill="none" d="M0,0L0,-228L-1,-228" transform="translate(567,354.5)" id="shape21"/>
        <g transform="translate(185,179)" id="shape22">
            <text class="st3">
                <tspan x="16.9" y="16.3">Data</tspan>
                <tspan x="22.3" y="28.9">and</tspan>
                <tspan x="4.9" y="41.6">Trading</tspan>
            </text>
        </g>
        <path stroke="#000000" fill="none" d="M0,0L0,-104" transform="translate(358,232.5)" id="shape23"/>
        <path stroke="#000000" fill="none" d="M0,0L0,105L1.9,105" transform="translate(298,127.5)" id="shape24"/>
        <g transform="translate(359.55,155)" id="shape25">
            <text class="st3">
                <tspan x="2.9" y="16.3">Admin</tspan>
                <tspan x="2.9" y="28.9">and</tspan>
                <tspan x="2.9" y="41.6">Queries</tspan>
            </text>
        </g>
        <g transform="translate(300,155)" id="shape26">
            <text class="st3">
                <tspan x="2.9" y="28.9">Admin</tspan>
            </text>
        </g>
    </g>
</svg>
